<svg width="82" height="67" fill="none" xmlns="http://www.w3.org/2000/svg"><path d="M48.815 56.81c-5.22 6.18-11.97 9.27-20.25 9.27s-15-3.09-20.16-9.27S.665 42.86.665 33.5c0-9.3 2.61-17.04 7.83-23.22 5.22-6.24 11.97-9.36 20.25-9.36 8.22 0 14.91 3.09 20.07 9.27 5.22 6.18 7.83 13.95 7.83 23.31 0 9.3-2.61 17.07-7.83 23.31zm-30.15-8.91c2.58 3.78 5.94 5.67 10.08 5.67s7.44-1.86 9.9-5.58c2.52-3.78 3.78-8.61 3.78-14.49 0-5.76-1.29-10.53-3.87-14.31-2.58-3.84-5.91-5.76-9.99-5.76s-7.38 1.89-9.9 5.67c-2.52 3.72-3.78 8.52-3.78 14.4 0 5.82 1.26 10.62 3.78 14.4zm50.97 7.452c-.768.832-1.752 1.248-2.952 1.248s-2.176-.408-2.928-1.224c-.752-.832-1.128-1.856-1.128-3.072s.384-2.232 1.152-3.048c.768-.832 1.752-1.248 2.952-1.248s2.176.416 2.928 1.248c.752.816 1.128 1.832 1.128 3.048 0 1.2-.384 2.216-1.152 3.048zM64.307 65L76.57 48.2h2.856L67.163 65h-2.856zm15.648-1.056c-.768.832-1.752 1.248-2.952 1.248s-2.176-.408-2.928-1.224c-.752-.832-1.128-1.856-1.128-3.072s.384-2.232 1.152-3.048c.768-.832 1.752-1.248 2.952-1.248s2.176.416 2.928 1.248c.752.816 1.128 1.832 1.128 3.048 0 1.2-.384 2.216-1.152 3.048zM66.73 54.416c.48 0 .856-.2 1.128-.6.272-.416.408-.92.408-1.512 0-.576-.152-1.072-.456-1.488-.288-.416-.664-.624-1.128-.624-.48 0-.856.2-1.128.6-.272.4-.408.904-.408 1.512 0 .576.144 1.072.432 1.488.304.416.688.624 1.152.624zm10.32 8.592c.48 0 .856-.2 1.128-.6.272-.416.408-.92.408-1.512 0-.576-.152-1.072-.456-1.488-.288-.416-.664-.624-1.128-.624-.48 0-.856.2-1.128.6-.272.4-.408.904-.408 1.512 0 .576.144 1.072.432 1.488.304.416.688.624 1.152.624z" fill="#333"/></svg>