<svg width="81" height="81" fill="none" xmlns="http://www.w3.org/2000/svg"><g clip-path="url(#clip0_111_64)"><path d="M79.304 50.173c-5.345 21.44-27.067 34.473-48.476 29.129-21.44-5.345-34.474-27.066-29.13-48.475C7.044 9.387 28.735-3.646 50.175 1.698c21.41 5.314 34.474 27.035 29.13 48.475z" fill="url(#paint0_linear_111_64)"/><path d="M56.806 31.556c-.62-5.333-5.258-7.067-11.124-7.469l-.118-7.441-4.509.075.13 7.245c-1.19.028-2.41.063-3.622.13l-.137-7.276-4.51.076.14 7.404c-.992.04-1.954.07-2.886.094l-.008-.03-6.244.12.096 4.827s3.334-.117 3.281-.07c1.834-.039 2.443 1.027 2.625 1.95l.135 8.472c.13-.003.288-.013.494.03-.16.01-.318.02-.485 0l.199 11.852c-.074.57-.407 1.5-1.665 1.514.046.052-3.281.07-3.281.07l-.81 5.426 5.895-.091c1.1-.004 2.16-.03 3.229-.024l.134 7.502 4.509-.076-.118-7.442c1.228-.005 2.456-.011 3.615-.03l.14 7.403 4.509-.076-.134-7.502c7.609-.583 12.896-2.582 13.405-9.739.434-5.745-2.315-8.276-6.652-9.25 2.638-1.386 4.227-3.785 3.767-7.673zm-6.05 16.18c.11 5.6-9.525 5.14-12.586 5.184l-.175-9.95c3.061-.043 12.678-1.1 12.762 4.766zm-2.335-14.03c.078 5.123-7.942 4.652-10.488 4.687l-.152-9.018c2.546-.035 10.543-.98 10.64 4.331z" fill="#fff"/></g><defs><linearGradient id="paint0_linear_111_64" x1="40.479" y1=".481" x2="40.479" y2="80.492" gradientUnits="userSpaceOnUse"><stop stop-color="#F9AA4B"/><stop offset="1" stop-color="#F7931A"/></linearGradient><clipPath id="clip0_111_64"><path fill="#fff" transform="translate(.5 .5)" d="M0 0h80v80H0z"/></clipPath></defs></svg>