<svg width="23" height="23" fill="none" xmlns="http://www.w3.org/2000/svg"><path fill-rule="evenodd" clip-rule="evenodd" d="M11.5 22.042C5.678 22.042.958 17.322.958 11.5S5.678.958 11.5.958 22.042 5.678 22.042 11.5 17.322 22.042 11.5 22.042zm7.091-5.63a8.625 8.625 0 10-14.182 0c1.078-1.425 3.613-2.037 7.09-2.037 3.48 0 6.013.612 7.092 2.036zm-1.375 1.547c-.28-1.008-2.295-1.667-5.716-1.667-3.42 0-5.436.659-5.716 1.667a8.592 8.592 0 005.716 2.166 8.593 8.593 0 005.716-2.166zM11.5 14.375c-2.146 0-3.833-1.507-3.833-4.791 0-2.151 1.513-3.834 3.833-3.834 2.313 0 3.833 1.842 3.833 4.025 0 3.143-1.707 4.6-3.833 4.6zM9.583 9.584c0 2.174.784 2.875 1.917 2.875 1.129 0 1.917-.673 1.917-2.684 0-1.197-.752-2.108-1.917-2.108-1.214 0-1.917.782-1.917 1.917z" fill="#929AA2"/></svg>